<?xml version="1.0" encoding="UTF-8"?>
<svg version="1.1" xmlns="http://www.w3.org/2000/svg" width="225" height="225">
<path d="M0 0 C74.25 0 148.5 0 225 0 C225 74.25 225 148.5 225 225 C150.75 225 76.5 225 0 225 C0 150.75 0 76.5 0 0 Z " fill="#F8F7F7" transform="translate(0,0)"/>
<path d="M0 0 C74.25 0 148.5 0 225 0 C225 74.25 225 148.5 225 225 C150.75 225 76.5 225 0 225 C0 150.75 0 76.5 0 0 Z M104 19.5 C77.76923676 34.23767432 49.96145259 42.44239898 20 45 C18.03531706 82.13250752 25.44911961 121.49698688 44 154 C44.57234375 155.05445313 45.1446875 156.10890625 45.734375 157.1953125 C52.57425241 169.46316602 61.35897182 179.89069331 71 190 C71.77859375 190.84304687 72.5571875 191.68609375 73.359375 192.5546875 C79.90065266 199.4252241 87.18722417 205.08939891 94.92431641 210.53515625 C96.30054958 211.50638643 97.66764176 212.49070945 99.02490234 213.48828125 C106.17342255 219.04888665 106.17342255 219.04888665 114.66796875 220.7890625 C117.46367613 219.50294589 119.59006576 217.91624513 122 216 C123.65567421 214.88687441 125.31137213 213.77378386 126.9675293 212.66137695 C165.41482565 186.26276079 192.78396698 145.04109835 201.4140625 98.9765625 C204.18003048 80.97350778 205.51511621 63.20869772 205 45 C203.50726563 44.96132813 203.50726563 44.96132813 201.984375 44.921875 C172.04923969 43.83887508 143.78675175 33.65369293 118.54174805 17.74267578 C112.23092881 13.77252242 110.082747 15.99099115 104 19.5 Z " fill="#FEFEFE" transform="translate(0,0)"/>
<path d="M0 0 C3.45780893 1.03196129 6.47869614 2.74717331 9.59765625 4.5390625 C36.0115257 19.47827376 62.5566074 28.90735348 93 30 C93.6268798 52.15939739 92.60852093 74.70437848 86 96 C85.71415039 96.96309082 85.42830078 97.92618164 85.13378906 98.91845703 C78.50961201 121.0624205 69.55855338 141.87344916 55 160 C54.5580127 160.55333008 54.11602539 161.10666016 53.66064453 161.67675781 C41.57058632 176.67237847 27.88771607 188.82802623 11.9375 199.5625 C11.00901245 200.18898437 11.00901245 200.18898437 10.06176758 200.828125 C3.1427953 205.3871304 3.1427953 205.3871304 0 206 C-2.61034027 204.87952375 -4.65307905 203.78486383 -7 202.25 C-7.65572998 201.8375 -8.31145996 201.425 -8.98706055 201 C-19.43428755 194.30813097 -28.99802747 186.53044063 -38 178 C-38.89460938 177.15824219 -39.78921875 176.31648437 -40.7109375 175.44921875 C-60.59865295 156.202144 -73.29459446 132.04325224 -82 106 C-82.32258789 105.05842041 -82.64517578 104.11684082 -82.97753906 103.14672852 C-85.97281683 93.99711332 -87.71988906 84.79336183 -89.25 75.3125 C-89.38206848 74.51083405 -89.51413696 73.70916809 -89.65020752 72.88320923 C-91.98500705 58.51431945 -92.77082467 44.56858627 -92 30 C-91.11368896 29.91866821 -91.11368896 29.91866821 -90.20947266 29.83569336 C-58.58691495 26.7814141 -26.69149122 17.79432748 0 0 Z M-8 16 C-30.45839134 29.09402338 -56.1619827 36.25914068 -82 38 C-82.62322964 82.31855202 -72.25857844 125.76123799 -43 160 C-42.30261719 160.83144531 -41.60523438 161.66289062 -40.88671875 162.51953125 C-35.47086844 168.78190878 -29.54989986 173.95480687 -23 179 C-22.00484375 179.77601563 -21.0096875 180.55203125 -19.984375 181.3515625 C-10.24826814 189.89508019 -10.24826814 189.89508019 1.33984375 193.9296875 C4.9714518 192.66049115 7.97933585 190.6644515 11.125 188.5 C11.78951172 188.04713623 12.45402344 187.59427246 13.13867188 187.12768555 C49.12120968 162.30511275 71.98030433 125.51468264 80.0703125 82.66015625 C80.85018591 78.12234822 81.46651627 73.5727177 82 69 C82.13019531 67.95328125 82.26039063 66.9065625 82.39453125 65.828125 C83.35128806 56.59223261 83.08729699 47.27288058 83 38 C82.10023438 37.98582031 81.20046875 37.97164062 80.2734375 37.95703125 C54.71288934 37.0093957 26.68796152 28.66348607 5.6640625 13.6953125 C0.26809743 10.26151655 -3.2010702 13.07301418 -8 16 Z " fill="#ED3237" transform="translate(112,15)"/>
<path d="M0 0 C0.86238281 -0.01675781 1.72476563 -0.03351563 2.61328125 -0.05078125 C5.39844254 0.278342 7.35310737 0.87794983 9.94921875 1.8515625 C14.8816051 3.58095382 19.03670528 3.46197533 24.1875 3 C25.93203601 2.87654103 27.67684019 2.75682098 29.421875 2.640625 C30.29392578 2.58068359 31.16597656 2.52074219 32.06445312 2.45898438 C36.18957953 2.22861618 40.30711062 2.22394215 44.4375 2.25 C45.53674805 2.25616333 45.53674805 2.25616333 46.65820312 2.26245117 C48.33467258 2.27484989 50.01109862 2.29295646 51.6875 2.3125 C51.6875 2.6425 51.6875 2.9725 51.6875 3.3125 C55.69004456 3.40431134 55.69004456 3.40431134 59.6875 3.3125 C60.0175 2.9825 60.3475 2.6525 60.6875 2.3125 C62.37358966 2.24044489 64.06250659 2.22863932 65.75 2.25 C66.66910156 2.25902344 67.58820313 2.26804687 68.53515625 2.27734375 C69.24542969 2.28894531 69.95570313 2.30054687 70.6875 2.3125 C70.11405063 5.17974686 69.8260485 6.1739515 67.6875 8.3125 C67.6875 8.9725 67.6875 9.6325 67.6875 10.3125 C66.35416667 11.3125 65.02083333 12.3125 63.6875 13.3125 C63.6875 13.9725 63.6875 14.6325 63.6875 15.3125 C62.36962715 16.33278865 61.03539347 17.33221384 59.6875 18.3125 C59.3575 18.9725 59.0275 19.6325 58.6875 20.3125 C57.3675 20.3125 56.0475 20.3125 54.6875 20.3125 C54.1925 21.7975 54.1925 21.7975 53.6875 23.3125 C51.36543475 24.01741267 49.03156932 24.68462429 46.6875 25.3125 C46.3575 25.9725 46.0275 26.6325 45.6875 27.3125 C42.34497276 27.38677838 39.8839086 27.37796953 36.6875 26.3125 C37.3475 26.6425 38.0075 26.9725 38.6875 27.3125 C38.6875 27.9725 38.6875 28.6325 38.6875 29.3125 C36.7075 29.3125 34.7275 29.3125 32.6875 29.3125 C32.6875 29.6425 32.6875 29.9725 32.6875 30.3125 C31.945 30.291875 31.2025 30.27125 30.4375 30.25 C27.98287721 30.30578688 26.02640739 30.6194904 23.6875 31.3125 C23.605 31.84875 23.5225 32.385 23.4375 32.9375 C21.88520505 37.85310067 19.38192215 41.15040072 14.9375 43.6875 C13.865 44.22375 12.7925 44.76 11.6875 45.3125 C11.0275 44.6525 10.3675 43.9925 9.6875 43.3125 C10.64615509 45.64325929 10.64615509 45.64325929 13.6875 47.3125 C13.0275 47.3125 12.3675 47.3125 11.6875 47.3125 C11.1925 48.3025 11.1925 48.3025 10.6875 49.3125 C9.6975 47.6625 8.7075 46.0125 7.6875 44.3125 C8.1825 46.7875 8.1825 46.7875 8.6875 49.3125 C7.03135343 49.69468767 5.36292976 50.02645102 3.6875 50.3125 C3.3575 49.9825 3.0275 49.6525 2.6875 49.3125 C1.6975 50.3025 1.6975 50.3025 0.6875 51.3125 C-0.034375 50.9825 -0.75625 50.6525 -1.5 50.3125 C-4.1826379 49.14805888 -4.1826379 49.14805888 -6.640625 49.47265625 C-12.09234063 49.14587213 -16.35056163 44.79827321 -20.3125 41.3125 C-22.93145946 38.05349559 -24.64679678 34.47314511 -25.3125 30.3125 C-26.9625 30.3125 -28.6125 30.3125 -30.3125 30.3125 C-29.6525 28.9925 -28.9925 27.6725 -28.3125 26.3125 C-28.704375 26.8075 -29.09625 27.3025 -29.5 27.8125 C-31.86341715 29.76843143 -33.32685003 29.55457973 -36.3125 29.3125 C-36.3125 28.6525 -36.3125 27.9925 -36.3125 27.3125 C-34.3125 25.6875 -34.3125 25.6875 -32.3125 24.3125 C-33.3025 24.9725 -34.2925 25.6325 -35.3125 26.3125 C-37.57421875 26.5078125 -37.57421875 26.5078125 -40 26.4375 C-40.80824219 26.41945312 -41.61648437 26.40140625 -42.44921875 26.3828125 C-43.06410156 26.35960937 -43.67898437 26.33640625 -44.3125 26.3125 C-44.3125 25.6525 -44.3125 24.9925 -44.3125 24.3125 C-46.6225 23.9825 -48.9325 23.6525 -51.3125 23.3125 C-51.6425 22.3225 -51.9725 21.3325 -52.3125 20.3125 C-53.6325 20.3125 -54.9525 20.3125 -56.3125 20.3125 C-56.6425 19.3225 -56.9725 18.3325 -57.3125 17.3125 C-58.1375 16.8175 -58.9625 16.3225 -59.8125 15.8125 C-62.3125 14.3125 -62.3125 14.3125 -63.3125 11.3125 C-64.3025 10.6525 -65.2925 9.9925 -66.3125 9.3125 C-66.3125 7.9925 -66.3125 6.6725 -66.3125 5.3125 C-67.3025 4.9825 -68.2925 4.6525 -69.3125 4.3125 C-68.9825 3.6525 -68.6525 2.9925 -68.3125 2.3125 C-67.61172333 2.31694122 -66.91094666 2.32138245 -66.18893433 2.32595825 C-59.56855685 2.36611588 -52.94821362 2.39652542 -46.32774162 2.41612434 C-42.92449603 2.42653924 -39.5213515 2.44065619 -36.11816406 2.46337891 C-32.20118439 2.489367 -28.28424493 2.49899178 -24.3671875 2.5078125 C-23.15134979 2.51813507 -21.93551208 2.52845764 -20.68283081 2.53909302 C-19.54210114 2.53924408 -18.40137146 2.53939514 -17.22607422 2.53955078 C-16.22679901 2.543992 -15.2275238 2.54843323 -14.19796753 2.55300903 C-9.23379211 2.13923587 -5.05608458 0.02247149 0 0 Z " fill="#CECECE" transform="translate(111.3125,114.6875)"/>
<path d="M0 0 C3.3 0 6.6 0 10 0 C16.70387244 19.96810934 16.70387244 19.96810934 17 29 C17.66 29 18.32 29 19 29 C19.10183594 27.906875 19.20367187 26.81375 19.30859375 25.6875 C19.98272329 20.29446369 21.51742122 15.19806087 23.0625 10 C23.34416016 9.03449219 23.62582031 8.06898437 23.91601562 7.07421875 C24.60522667 4.71454704 25.30185394 2.35704359 26 0 C29.63 0 33.26 0 37 0 C37.06058594 1.54429688 37.12117188 3.08859375 37.18359375 4.6796875 C37.26807554 6.74479796 37.35271962 8.80990178 37.4375 10.875 C37.47681641 11.88820313 37.51613281 12.90140625 37.55664062 13.9453125 C37.79295568 19.61687387 38.18718987 25.23076962 38.79272461 30.87451172 C39.15567131 34.59631854 39.0602417 38.26501479 39 42 C36.36 42 33.72 42 31 42 C30.01 27.645 30.01 27.645 29 13 C26.36 22.24 23.72 31.48 21 41 C18.69 41 16.38 41 14 41 C13.20701081 38.167031 12.41557728 35.33364215 11.625 32.5 C11.40328125 31.70851563 11.1815625 30.91703125 10.953125 30.1015625 C9.55518611 25.08542885 8.24111785 20.05726524 7 15 C6.23363909 18.46089679 5.82850629 21.76077488 5.68359375 25.30078125 C5.64169922 26.27724609 5.59980469 27.25371094 5.55664062 28.25976562 C5.51732422 29.26716797 5.47800781 30.27457031 5.4375 31.3125 C5.39431641 32.33923828 5.35113281 33.36597656 5.30664062 34.42382812 C5.20093175 36.94909569 5.09883532 39.47445562 5 42 C2.36 42 -0.28 42 -3 42 C-2.55875576 27.91247036 -1.81824994 13.9811063 0 0 Z " fill="#393637" transform="translate(92,53)"/>
<path d="M0 0 C3.18561117 2.73052386 5.74093256 5.48186512 7.625 9.25 C7.98168624 14.62258647 6.9115955 18.50332345 3.5 22.6875 C-0.8246442 27.12687966 -4.75456207 27.96413404 -10.8125 28.625 C-16.40557125 28.03625566 -20.54758431 25.79627482 -24.8125 22.1875 C-27.70841006 18.59657152 -27.71696803 14.95442311 -27.65234375 10.53125 C-27.21366451 6.92295882 -25.75218808 4.93997599 -23.375 2.25 C-16.04339391 -3.40144636 -8.36238622 -4.33605211 0 0 Z " fill="#ED3237" transform="translate(122.375,126.75)"/>
<path d="M0 0 C-0.66 0.66 -1.32 1.32 -2 2 C11.365 2.495 11.365 2.495 25 3 C25 3.66 25 4.32 25 5 C23.66666667 6 22.33333333 7 21 8 C21 8.66 21 9.32 21 10 C19.68212715 11.02028865 18.34789347 12.01971384 17 13 C16.67 13.66 16.34 14.32 16 15 C14.68 15 13.36 15 12 15 C11.505 16.485 11.505 16.485 11 18 C7.23950396 19.9102292 3.44296862 20.40610494 -0.609375 19.265625 C-2.32075471 18.54995712 -4.01818809 17.79993168 -5.69921875 17.015625 C-8.12664926 15.82792068 -8.12664926 15.82792068 -11.5 15.4375 C-12.325 15.293125 -13.15 15.14875 -14 15 C-14.66 14.01 -15.32 13.02 -16 12 C-17.32 12 -18.64 12 -20 12 C-20.33 12.66 -20.66 13.32 -21 14 C-21.66666667 15.33333333 -22.33333333 16.66666667 -23 18 C-21.35 17.67 -19.7 17.34 -18 17 C-19.98 17.99 -19.98 17.99 -22 19 C-22 21.64 -22 24.28 -22 27 C-23.65 27.33 -25.3 27.66 -27 28 C-26.67 27.13375 -26.34 26.2675 -26 25.375 C-24.53431978 20.42832925 -24.20649688 17.52596754 -26.625 12.875 C-30.47405348 8.21561947 -33.89397278 5.92479534 -39.875 5.0625 C-44.77803564 4.75975232 -48.77213642 5.43203667 -53 8 C-57.35084128 12.57396135 -58.30932212 15.61080001 -58.2109375 21.75 C-57.91445578 24.91247171 -57.06437861 26.59155829 -55 29 C-52.05763218 31.21168225 -52.05763218 31.21168225 -49 33 C-48.01 33.66 -47.02 34.32 -46 35 C-48.91916538 35.34751969 -51.13195476 35.53280018 -53.69921875 33.95703125 C-55.88339965 32.15362765 -57.72206192 30.55587616 -59 28 C-59.99 27.34 -60.98 26.68 -62 26 C-61.34 26 -60.68 26 -60 26 C-60.33 23.69 -60.66 21.38 -61 19 C-63.475 18.01 -63.475 18.01 -66 17 C-64 16 -64 16 -61 16 C-61 15.34 -61 14.68 -61 14 C-62.32 13.34 -63.64 12.68 -65 12 C-65 11.34 -65 10.68 -65 10 C-65.99 9.67 -66.98 9.34 -68 9 C-67.34 8.67 -66.68 8.34 -66 8 C-63.5249829 9.11431765 -61.32116581 10.58150978 -59 12 C-58.6596875 10.824375 -58.6596875 10.824375 -58.3125 9.625 C-57 7 -57 7 -54.5625 5.8125 C-53.716875 5.544375 -52.87125 5.27625 -52 5 C-51.01 4.34 -50.02 3.68 -49 3 C-46.07421875 2.734375 -46.07421875 2.734375 -42.6875 2.75 C-41.02267578 2.74226563 -41.02267578 2.74226563 -39.32421875 2.734375 C-35.92349372 3.00611331 -33.21181178 3.90622283 -30 5 C-29.34 4.67 -28.68 4.34 -28 4 C-27.505 4.99 -27.505 4.99 -27 6 C-26.566875 5.195625 -26.13375 4.39125 -25.6875 3.5625 C-24 1 -24 1 -21 0 C-18.1827468 -0.25585549 -15.38499281 -0.46385012 -12.5625 -0.625 C-11.4168457 -0.70234375 -11.4168457 -0.70234375 -10.24804688 -0.78125 C-9.50748047 -0.82507813 -8.76691406 -0.86890625 -8.00390625 -0.9140625 C-6.99565796 -0.9752124 -6.99565796 -0.9752124 -5.96704102 -1.03759766 C-3.84283683 -0.99699601 -2.03566356 -0.58794804 0 0 Z " fill="#B1B0B0" transform="translate(154,120)"/>
<path d="M0 0 C5.93634073 2.49366694 11.96278689 4.76399515 18 7 C17.67 7.66 17.34 8.32 17 9 C13.65747276 9.07427838 11.1964086 9.06546953 8 8 C8.99 8.495 8.99 8.495 10 9 C10 9.66 10 10.32 10 11 C8.02 11 6.04 11 4 11 C4 11.33 4 11.66 4 12 C2.88625 11.9690625 2.88625 11.9690625 1.75 11.9375 C-0.70462279 11.99328688 -2.66109261 12.3069904 -5 13 C-5.0825 13.53625 -5.165 14.0725 -5.25 14.625 C-6.80229495 19.54060067 -9.30557785 22.83790072 -13.75 25.375 C-14.8225 25.91125 -15.895 26.4475 -17 27 C-17.66 26.34 -18.32 25.68 -19 25 C-18.04134491 27.33075929 -18.04134491 27.33075929 -15 29 C-15.66 29 -16.32 29 -17 29 C-17.33 29.66 -17.66 30.32 -18 31 C-18.99 29.35 -19.98 27.7 -21 26 C-20.505 28.475 -20.505 28.475 -20 31 C-21.65614657 31.38218767 -23.32457024 31.71395102 -25 32 C-25.33 31.67 -25.66 31.34 -26 31 C-26.66 31.66 -27.32 32.32 -28 33 C-29.0828125 32.505 -29.0828125 32.505 -30.1875 32 C-32.8701379 30.83555888 -32.8701379 30.83555888 -35.328125 31.16015625 C-40.77984063 30.83337213 -45.03806163 26.48577321 -49 23 C-51.61895946 19.74099559 -53.33429678 16.16064511 -54 12 C-55.65 12 -57.3 12 -59 12 C-58.34 10.68 -57.68 9.36 -57 8 C-57.391875 8.495 -57.78375 8.99 -58.1875 9.5 C-60.55091715 11.45593143 -62.01435003 11.24207973 -65 11 C-65 10.34 -65 9.68 -65 9 C-63 7.375 -63 7.375 -61 6 C-61.99 6.66 -62.98 7.32 -64 8 C-66.26171875 8.1953125 -66.26171875 8.1953125 -68.6875 8.125 C-69.89986328 8.09792969 -69.89986328 8.09792969 -71.13671875 8.0703125 C-72.05904297 8.03550781 -72.05904297 8.03550781 -73 8 C-70.56805106 5.56805106 -68.28581221 4.66106169 -65.125 3.3125 C-64.07570313 2.85488281 -63.02640625 2.39726562 -61.9453125 1.92578125 C-58.89439957 0.96680729 -57.89200167 0.8516168 -55 2 C-54.30519531 2.23976562 -53.61039063 2.47953125 -52.89453125 2.7265625 C-50.72617602 3.6622505 -48.87572043 4.55847411 -47 6 C-46.3125 9.375 -46.3125 9.375 -46 13 C-43.92584453 16.41031555 -41.32084148 18.78610568 -38 21 C-30.4661141 21.79358306 -23.79544933 21.39772467 -17 18 C-15.99619535 17.00381918 -14.99598667 16.00399729 -14 15 C-11.3125 13.8125 -11.3125 13.8125 -9 13 C-8.855625 11.865625 -8.71125 10.73125 -8.5625 9.5625 C-8 6 -8 6 -7 5 C-7.66 5 -8.32 5 -9 5 C-8.75 2.625 -8.75 2.625 -8 0 C-4.72101436 -2.60057482 -3.44573786 -1.84437325 0 0 Z " fill="#6E6C6C" transform="translate(140,133)"/>
<path d="M0 0 C0.86238281 -0.01675781 1.72476563 -0.03351563 2.61328125 -0.05078125 C5.39844254 0.278342 7.35310737 0.87794983 9.94921875 1.8515625 C14.8816051 3.58095382 19.03670528 3.46197533 24.1875 3 C25.93203601 2.87654103 27.67684019 2.75682098 29.421875 2.640625 C30.29392578 2.58068359 31.16597656 2.52074219 32.06445312 2.45898438 C36.18957953 2.22861618 40.30711062 2.22394215 44.4375 2.25 C45.53674805 2.25616333 45.53674805 2.25616333 46.65820312 2.26245117 C48.33467258 2.27484989 50.01109862 2.29295646 51.6875 2.3125 C51.6875 2.6425 51.6875 2.9725 51.6875 3.3125 C55.69004456 3.40431134 55.69004456 3.40431134 59.6875 3.3125 C60.0175 2.9825 60.3475 2.6525 60.6875 2.3125 C62.37358966 2.24044489 64.06250659 2.22863932 65.75 2.25 C66.66910156 2.25902344 67.58820313 2.26804687 68.53515625 2.27734375 C69.24542969 2.28894531 69.95570313 2.30054687 70.6875 2.3125 C70.3125 4.25 70.3125 4.25 69.6875 6.3125 C66.7655231 7.77348845 64.18856525 7.42384901 60.9296875 7.41015625 C59.93511032 7.40803383 59.93511032 7.40803383 58.92044067 7.40586853 C56.80108137 7.40026754 54.68182741 7.387715 52.5625 7.375 C51.12630361 7.36998512 49.69010556 7.36542219 48.25390625 7.36132812 C44.73173655 7.35029782 41.20962855 7.33303259 37.6875 7.3125 C38.6775 6.6525 39.6675 5.9925 40.6875 5.3125 C37.60345192 5.42270857 34.52058808 5.55325814 31.4375 5.6875 C30.56480469 5.7184375 29.69210938 5.749375 28.79296875 5.78125 C27.94863281 5.81992188 27.10429687 5.85859375 26.234375 5.8984375 C25.45932617 5.9298584 24.68427734 5.9612793 23.88574219 5.99365234 C21.43716062 6.34881089 19.78847216 7.01611897 17.6875 8.3125 C16.41945434 10.3460948 16.41945434 10.3460948 15.6875 12.3125 C15.1925 10.8275 15.1925 10.8275 14.6875 9.3125 C14.3575 9.9725 14.0275 10.6325 13.6875 11.3125 C12.800625 10.9825 11.91375 10.6525 11 10.3125 C4.69277999 8.55622126 -2.67719962 7.91302087 -8.859375 10.29296875 C-12.58355461 12.50165191 -14.56998865 14.29528171 -16.3125 18.3125 C-18.2925 17.3225 -20.2725 16.3325 -22.3125 15.3125 C-22.3125 15.9725 -22.3125 16.6325 -22.3125 17.3125 C-19.8375 18.3025 -19.8375 18.3025 -17.3125 19.3125 C-17.9725 20.6325 -18.6325 21.9525 -19.3125 23.3125 C-21.3125 22.3125 -21.3125 22.3125 -22.3125 20.3125 C-24.33713255 19.66036708 -24.33713255 19.66036708 -26.3125 19.3125 C-26.3125 18.6525 -26.3125 17.9925 -26.3125 17.3125 C-26.9725 16.9825 -27.6325 16.6525 -28.3125 16.3125 C-28.3125 15.9825 -28.3125 15.6525 -28.3125 15.3125 C-28.9725 15.3125 -29.6325 15.3125 -30.3125 15.3125 C-30.6425 13.9925 -30.9725 12.6725 -31.3125 11.3125 C-28.0125 11.3125 -24.7125 11.3125 -21.3125 11.3125 C-21.9725 9.9925 -22.6325 8.6725 -23.3125 7.3125 C-21.0025 7.6425 -18.6925 7.9725 -16.3125 8.3125 C-20.12853456 5.76847696 -23.44037408 5.90088769 -27.875 5.75 C-36.0739145 5.43179275 -36.0739145 5.43179275 -38.3125 4.3125 C-40.68373246 4.08220044 -43.05991943 3.90130058 -45.4375 3.75 C-46.71882813 3.66621094 -48.00015625 3.58242187 -49.3203125 3.49609375 C-50.80144531 3.40521484 -50.80144531 3.40521484 -52.3125 3.3125 C-52.3125 2.9825 -52.3125 2.6525 -52.3125 2.3125 C-50.49661377 2.32821045 -50.49661377 2.32821045 -48.64404297 2.34423828 C-44.13772558 2.38053343 -39.63142104 2.4034351 -35.125 2.42236328 C-33.17738672 2.43239919 -31.22978843 2.44603088 -29.28222656 2.46337891 C-26.47717583 2.48773328 -23.67232495 2.49900737 -20.8671875 2.5078125 C-19.56840164 2.52329636 -19.56840164 2.52329636 -18.24337769 2.53909302 C-11.82953363 2.54027402 -6.30262643 0.02801167 0 0 Z " fill="#7E7D7D" transform="translate(111.3125,114.6875)"/>
<path d="M0 0 C1.2684375 -0.00773437 1.2684375 -0.00773437 2.5625 -0.015625 C5.13478811 0.26468845 6.7803108 0.9551813 9 2.25 C8.67 4.23 8.34 6.21 8 8.25 C7.14535156 8.23839844 6.29070312 8.22679687 5.41015625 8.21484375 C4.30542969 8.20582031 3.20070312 8.19679688 2.0625 8.1875 C0.40927734 8.17009766 0.40927734 8.17009766 -1.27734375 8.15234375 C-3.91447634 7.93737429 -3.91447634 7.93737429 -5 9.25 C-5.75342517 11.57515499 -5.75342517 11.57515499 -5 14.25 C-3.16062299 15.72880435 -1.23150793 16.83079394 0.82421875 17.98828125 C4.37591448 20.04788218 8.13409392 22.51818784 10 26.25 C10.51816286 31.04937735 10.71207367 34.98409126 8.3125 39.25 C4.34699678 42.6796244 0.67638854 43.52908083 -4.5 43.5 C-5.4178125 43.50515625 -6.335625 43.5103125 -7.28125 43.515625 C-10.1778282 43.23262598 -12.36375653 42.45350245 -15 41.25 C-14.505 38.28 -14.505 38.28 -14 35.25 C-13.18015625 35.33378906 -12.3603125 35.41757813 -11.515625 35.50390625 C-10.43796875 35.60574219 -9.3603125 35.70757812 -8.25 35.8125 C-7.18265625 35.91691406 -6.1153125 36.02132812 -5.015625 36.12890625 C-2.35858796 36.23560074 -0.50039428 36.06930395 2 35.25 C2.00885927 31.89233738 2.00885927 31.89233738 1 28.25 C-1.21620497 26.48005127 -2.96346961 25.31406831 -5.4375 24.0625 C-11.62397684 20.7927905 -11.62397684 20.7927905 -13.3828125 18.25390625 C-14.42341003 14.8752573 -14.65646535 11.69810085 -14 8.25 C-10.81664878 2.46670057 -6.45942271 -0.03938672 0 0 Z " fill="#373435" transform="translate(151,51.75)"/>
<path d="M0 0 C2.64 0 5.28 0 8 0 C8.07435222 4.75053511 8.12869691 9.50072887 8.16479492 14.25170898 C8.17984876 15.86667789 8.20029648 17.48160613 8.22631836 19.09643555 C8.26285286 21.42246555 8.27976015 23.74795341 8.29296875 26.07421875 C8.30845261 26.79212082 8.32393646 27.51002289 8.33988953 28.24967957 C8.34137231 32.7016224 7.70306732 35.44548901 5 39 C0.52660249 42.9311675 -4.37717228 42.29478903 -10 42 C-10 39.69 -10 37.38 -10 35 C-8.329375 35.061875 -8.329375 35.061875 -6.625 35.125 C-2.95633975 35.41121859 -2.95633975 35.41121859 -1 33 C-0.75484303 30.49624532 -0.62666342 28.09450521 -0.5859375 25.5859375 C-0.56657135 24.85629791 -0.5472052 24.12665833 -0.5272522 23.37490845 C-0.46741578 21.04172498 -0.42105577 18.70849227 -0.375 16.375 C-0.33682386 14.79424918 -0.29777235 13.21351924 -0.2578125 11.6328125 C-0.16171122 7.7553777 -0.07769588 3.87784551 0 0 Z " fill="#393637" transform="translate(74,53)"/>
<path d="M0 0 C1.23556641 0.01740234 1.23556641 0.01740234 2.49609375 0.03515625 C3.32238281 0.04417969 4.14867188 0.05320312 5 0.0625 C5.63808594 0.07410156 6.27617188 0.08570312 6.93359375 0.09765625 C8.03258077 3.3946173 7.80483819 4.50260528 6.99609375 7.78515625 C6.80144531 8.59339844 6.60679688 9.40164062 6.40625 10.234375 C6.25027344 10.84925781 6.09429687 11.46414062 5.93359375 12.09765625 C6.90296875 12.57203125 7.87234375 13.04640625 8.87109375 13.53515625 C11.93359375 15.09765625 11.93359375 15.09765625 12.93359375 16.09765625 C12.97423207 17.7638274 12.97631475 19.4315372 12.93359375 21.09765625 C9.4713676 22.16489586 6.29320109 22.19939111 2.68359375 22.16015625 C1.6059375 22.15113281 0.52828125 22.14210937 -0.58203125 22.1328125 C-1.401875 22.12121094 -2.22171875 22.10960937 -3.06640625 22.09765625 C-2.73640625 21.43765625 -2.40640625 20.77765625 -2.06640625 20.09765625 C-4.37640625 20.42765625 -6.68640625 20.75765625 -9.06640625 21.09765625 C-8.44140625 18.28515625 -8.44140625 18.28515625 -7.06640625 15.09765625 C-3.94140625 13.22265625 -3.94140625 13.22265625 -1.06640625 12.09765625 C-1.22238281 11.31519531 -1.37835938 10.53273437 -1.5390625 9.7265625 C-1.83103516 8.20869141 -1.83103516 8.20869141 -2.12890625 6.66015625 C-2.32613281 5.65082031 -2.52335937 4.64148438 -2.7265625 3.6015625 C-2.83871094 2.77527344 -2.95085937 1.94898438 -3.06640625 1.09765625 C-2.06640625 0.09765625 -2.06640625 0.09765625 0 0 Z " fill="#FBDBDB" transform="translate(110.06640625,126.90234375)"/>
<path d="M0 0 C0.69480469 0.23976562 1.38960937 0.47953125 2.10546875 0.7265625 C4.27382398 1.6622505 6.12427957 2.55847411 8 4 C8.6875 7.375 8.6875 7.375 9 11 C11.85303687 15.04180224 15.03888152 18.05745484 19 21 C18.34 22.32 17.68 23.64 17 25 C11.48141541 23.66216131 8.14990193 19.4877635 5 15 C4.296875 12.7421875 4.296875 12.7421875 4 11 C1.36 10.67 -1.28 10.34 -4 10 C-3.34 8.68 -2.68 7.36 -2 6 C-2.391875 6.495 -2.78375 6.99 -3.1875 7.5 C-5.55091715 9.45593143 -7.01435003 9.24207973 -10 9 C-10 8.34 -10 7.68 -10 7 C-8 5.375 -8 5.375 -6 4 C-6.99 4.66 -7.98 5.32 -9 6 C-11.26171875 6.1953125 -11.26171875 6.1953125 -13.6875 6.125 C-14.89986328 6.09792969 -14.89986328 6.09792969 -16.13671875 6.0703125 C-17.05904297 6.03550781 -17.05904297 6.03550781 -18 6 C-15.56805106 3.56805106 -13.28581221 2.66106169 -10.125 1.3125 C-8.55105469 0.62607422 -8.55105469 0.62607422 -6.9453125 -0.07421875 C-3.89439957 -1.03319271 -2.89200167 -1.1483832 0 0 Z " fill="#413D3F" transform="translate(85,135)"/>
<path d="M0 0 C27.36040609 -0.31979695 27.36040609 -0.31979695 32 2 C35.53913483 2.1997004 39.07169575 2.34553221 42.61523438 2.4296875 C47.21896314 2.62167619 50.18396421 3.15130262 54 6 C53.67 6.99 53.34 7.98 53 9 C52.4121875 8.2884375 52.4121875 8.2884375 51.8125 7.5625 C49.59191626 5.64820367 47.86624291 5.38733012 45 5 C44.67 5.99 44.34 6.98 44 8 C43.01 7.34 42.02 6.68 41 6 C40.67 6.66 40.34 7.32 40 8 C39.360625 7.814375 38.72125 7.62875 38.0625 7.4375 C37.0415625 7.2209375 37.0415625 7.2209375 36 7 C35.67 7.33 35.34 7.66 35 8 C33.48071962 8.07179964 31.95832518 8.08392007 30.4375 8.0625 C29.61121094 8.05347656 28.78492187 8.04445313 27.93359375 8.03515625 C27.29550781 8.02355469 26.65742187 8.01195313 26 8 C26 7.67 26 7.34 26 7 C18.08 7 10.16 7 2 7 C2 5.68 2 4.36 2 3 C1.01 2.67 0.02 2.34 -1 2 C-0.67 1.34 -0.34 0.68 0 0 Z " fill="#BDBCBC" transform="translate(43,117)"/>
<path d="M0 0 C1.19625 0.53625 2.3925 1.0725 3.625 1.625 C6.96322622 2.90207943 7.84915331 3.03501798 11.5 2.1875 C12.325 1.795625 13.15 1.40375 14 1 C14.12375 2.8253125 14.12375 2.8253125 14.25 4.6875 C14.73758372 8.78465871 16.09510536 11.00139908 19 14 C16.36 14.33 13.72 14.66 11 15 C10.34 16.98 9.68 18.96 9 21 C8.01 21 7.02 21 6 21 C5.34 19.02 4.68 17.04 4 15 C1.36 15 -1.28 15 -4 15 C-2.84826645 12.53199953 -1.95216435 10.95216435 0 9 C0.24253813 6.78927023 0.24253813 6.78927023 0.125 4.375 C0.09792969 3.14910156 0.09792969 3.14910156 0.0703125 1.8984375 C0.04710938 1.27195313 0.02390625 0.64546875 0 0 Z " fill="#ED3338" transform="translate(105,177)"/>
<path d="M0 0 C0 0.33 0 0.66 0 1 C4.00254456 1.09181134 4.00254456 1.09181134 8 1 C8.33 0.67 8.66 0.34 9 0 C10.68608966 -0.07205511 12.37500659 -0.08386068 14.0625 -0.0625 C14.98160156 -0.05347656 15.90070313 -0.04445313 16.84765625 -0.03515625 C17.55792969 -0.02355469 18.26820313 -0.01195313 19 0 C18.625 1.9375 18.625 1.9375 18 4 C15.0780231 5.46098845 12.50106525 5.11134901 9.2421875 5.09765625 C8.24761032 5.09553383 8.24761032 5.09553383 7.23294067 5.09336853 C5.11358137 5.08776754 2.99432741 5.075215 0.875 5.0625 C-0.56119639 5.05748512 -1.99739444 5.05292219 -3.43359375 5.04882812 C-6.95576345 5.03779782 -10.47787145 5.02053259 -14 5 C-13.01 4.34 -12.02 3.68 -11 3 C-14.08404808 3.11020857 -17.16691192 3.24075814 -20.25 3.375 C-21.12269531 3.4059375 -21.99539062 3.436875 -22.89453125 3.46875 C-23.73886719 3.50742188 -24.58320313 3.54609375 -25.453125 3.5859375 C-26.22817383 3.6173584 -27.00322266 3.6487793 -27.80175781 3.68115234 C-30.25033938 4.03631089 -31.89902784 4.70361897 -34 6 C-35.26804566 8.0335948 -35.26804566 8.0335948 -36 10 C-36.33 9.01 -36.66 8.02 -37 7 C-37.66 7 -38.32 7 -39 7 C-39 5.35 -39 3.7 -39 2 C-35.58930897 0.29465449 -31.69666175 0.60707315 -27.9375 0.4375 C-27.05094727 0.3950415 -26.16439453 0.35258301 -25.25097656 0.30883789 C-16.83129764 -0.06411937 -8.42583495 -0.09822865 0 0 Z " fill="#484546" transform="translate(163,117)"/>
<path d="M0 0 C3.77185085 1.18344007 6.81786768 2.72996554 9.5234375 5.63671875 C11.0324195 7.33918041 11.0324195 7.33918041 14 7 C16.34210921 6.36485174 18.67684969 5.7013284 21 5 C20.67 5.99 20.34 6.98 20 8 C18.67696283 8.3721042 17.34262065 8.70630173 16 9 C15.67 9.66 15.34 10.32 15 11 C14.33333333 12.33333333 13.66666667 13.66666667 13 15 C14.65 14.67 16.3 14.34 18 14 C16.02 14.99 16.02 14.99 14 16 C14 18.64 14 21.28 14 24 C12.35 24.33 10.7 24.66 9 25 C9.33 24.13375 9.66 23.2675 10 22.375 C11.46568022 17.42832925 11.79350312 14.52596754 9.375 9.875 C5.52594652 5.21561947 2.10602722 2.92479534 -3.875 2.0625 C-8.77803564 1.75975232 -12.77213642 2.43203667 -17 5 C-21.35084128 9.57396135 -22.30932212 12.61080001 -22.2109375 18.75 C-21.91445578 21.91247171 -21.06437861 23.59155829 -19 26 C-16.05763218 28.21168225 -16.05763218 28.21168225 -13 30 C-12.01 30.66 -11.02 31.32 -10 32 C-12.91916538 32.34751969 -15.13195476 32.53280018 -17.69921875 30.95703125 C-19.88339965 29.15362765 -21.72206192 27.55587616 -23 25 C-23.99 24.34 -24.98 23.68 -26 23 C-25.34 23 -24.68 23 -24 23 C-24.33 20.69 -24.66 18.38 -25 16 C-27.475 15.01 -27.475 15.01 -30 14 C-28 13 -28 13 -25 13 C-25 12.34 -25 11.68 -25 11 C-26.32 10.34 -27.64 9.68 -29 9 C-29 8.34 -29 7.68 -29 7 C-29.99 6.67 -30.98 6.34 -32 6 C-31.34 5.67 -30.68 5.34 -30 5 C-27.5249829 6.11431765 -25.32116581 7.58150978 -23 9 C-22.773125 8.21625 -22.54625 7.4325 -22.3125 6.625 C-21 4 -21 4 -18.5625 2.8125 C-17.716875 2.544375 -16.87125 2.27625 -16 2 C-11.10685465 -1.2620969 -5.71956455 -0.56047681 0 0 Z " fill="#EFDFE0" transform="translate(118,123)"/>
<path d="M0 0 C3.50997281 1.16999094 3.82681622 2.2935298 5.68359375 5.30078125 C8.18746802 8.53278513 11.65204637 10.70843951 15 13 C15.66 11.35 16.32 9.7 17 8 C18.02480469 7.89042969 19.04960938 7.78085938 20.10546875 7.66796875 C21.46621867 7.50843255 22.82689194 7.3482416 24.1875 7.1875 C24.86103516 7.11724609 25.53457031 7.04699219 26.22851562 6.97460938 C31.65327221 6.31305369 35.14700878 4.85299122 39 1 C39.99 1.33 40.98 1.66 42 2 C37.894534 5.97185616 34.97031739 8.70876501 29 9 C29.66 11.64 30.32 14.28 31 17 C29.68 17 28.36 17 27 17 C26.34 17.66 25.68 18.32 25 19 C24.278125 18.67 23.55625 18.34 22.8125 18 C20.1298621 16.83555888 20.1298621 16.83555888 17.671875 17.16015625 C12.22289385 16.83353603 7.95701943 12.48826482 4 9 C1.82759861 6.26065483 0 3.615799 0 0 Z " fill="#DEDEDE" transform="translate(87,147)"/>
<path d="M0 0 C-0.66 0.66 -1.32 1.32 -2 2 C11.365 2.495 11.365 2.495 25 3 C25 3.66 25 4.32 25 5 C18.23669043 9.50887305 9.65729279 7.92741763 1.9375 7.0625 C0.49600586 6.91264648 0.49600586 6.91264648 -0.97460938 6.75976562 C-3.3174455 6.5149917 -5.65899414 6.26160604 -8 6 C-8.33 6.66 -8.66 7.32 -9 8 C-9 7.34 -9 6.68 -9 6 C-10.65 5.67 -12.3 5.34 -14 5 C-14 4.34 -14 3.68 -14 3 C-15.918125 2.9690625 -15.918125 2.9690625 -17.875 2.9375 C-18.59429687 2.92589844 -19.31359375 2.91429688 -20.0546875 2.90234375 C-22.08185404 2.87350758 -22.08185404 2.87350758 -24 4 C-24.66 4.99 -25.32 5.98 -26 7 C-25.75 4.625 -25.75 4.625 -25 2 C-21.33969514 -0.70749354 -16.87635564 -0.483171 -12.5 -0.6875 C-11.74074219 -0.73455078 -10.98148438 -0.78160156 -10.19921875 -0.83007812 C-6.57876248 -1.02346502 -3.4792864 -0.99927665 0 0 Z " fill="#E4E3E3" transform="translate(154,120)"/>
<path d="M0 0 C1.051875 0.350625 2.10375 0.70125 3.1875 1.0625 C6.7954681 1.94970527 8.52632489 2.05262882 12 1 C11.938125 2.093125 11.87625 3.18625 11.8125 4.3125 C11.62756763 7.91752611 11.62756763 7.91752611 13.5 9.8125 C13.995 10.204375 14.49 10.59625 15 11 C15 11.66 15 12.32 15 13 C13.9275 13.0825 12.855 13.165 11.75 13.25 C7.7261549 14.05476902 6.51830747 14.87729874 4 18 C3.79375 17.21625 3.5875 16.4325 3.375 15.625 C2.19323388 12.69083714 2.19323388 12.69083714 -1.125 11.6875 C-2.548125 11.3471875 -2.548125 11.3471875 -4 11 C-3.2884375 10.2265625 -3.2884375 10.2265625 -2.5625 9.4375 C-0.57190593 6.33217325 -0.34939182 3.63367496 0 0 Z " fill="#ED393D" transform="translate(173,62)"/>
<path d="M0 0 C0.103125 1.0725 0.20625 2.145 0.3125 3.25 C0.97400493 6.85820872 1.57483421 8.36395023 4 11 C2.576875 11.3403125 2.576875 11.3403125 1.125 11.6875 C-2.19323388 12.69083714 -2.19323388 12.69083714 -3.375 15.625 C-3.58125 16.40875 -3.7875 17.1925 -4 18 C-4.721875 17.195625 -5.44375 16.39125 -6.1875 15.5625 C-9.02515689 12.97707928 -10.27166147 12.31957187 -14 12 C-13.67 11.484375 -13.34 10.96875 -13 10.4375 C-11.67989123 7.21973488 -11.86757895 4.4429472 -12 1 C-10.906875 1.20625 -9.81375 1.4125 -8.6875 1.625 C-4.50002298 2.05084512 -3.7438956 0 0 0 Z " fill="#ED3439" transform="translate(54,62)"/>
<path d="M0 0 C1.3125 2.5 1.3125 2.5 2 5 C2.33 5.66 2.66 6.32 3 7 C2.113125 6.67 1.22625 6.34 0.3125 6 C-6.27632482 4.09626168 -14.42406694 4.00002036 -21 6 C-20.34 3.69 -19.68 1.38 -19 -1 C-12.81840745 -2.74818794 -5.80818489 -2.97492397 0 0 Z " fill="#353233" transform="translate(122,119)"/>
<path d="M0 0 C5.17780166 -0.04954105 10.35546446 -0.08578636 15.53344727 -0.10986328 C17.29388839 -0.11990351 19.05431291 -0.13353844 20.81469727 -0.15087891 C23.34916285 -0.17521436 25.88340739 -0.18650296 28.41796875 -0.1953125 C29.20149216 -0.20563507 29.98501556 -0.21595764 30.7922821 -0.22659302 C34.97755404 -0.22744694 38.23883731 0.10796168 42 2 C41.6875 4.375 41.6875 4.375 41 7 C40.01 7.66 39.02 8.32 38 9 C37.731875 8.360625 37.46375 7.72125 37.1875 7.0625 C36.11332248 4.66868314 36.11332248 4.66868314 33 4 C29.35723473 3.74006036 25.72013227 3.55719417 22.07226562 3.39453125 C16.20147711 3.10073855 16.20147711 3.10073855 14 2 C11.62876754 1.76970044 9.25258057 1.58880058 6.875 1.4375 C5.59367187 1.35371094 4.31234375 1.26992187 2.9921875 1.18359375 C1.51105469 1.09271484 1.51105469 1.09271484 0 1 C0 0.67 0 0.34 0 0 Z " fill="#292526" transform="translate(59,117)"/>
<path d="M0 0 C3.25 -0.3125 3.25 -0.3125 6 0 C3.99546461 6.37806716 -0.25057708 9.8788847 -6 13 C-6.66 12.34 -7.32 11.68 -8 11 C-7.04134491 13.33075929 -7.04134491 13.33075929 -4 15 C-4.66 15 -5.32 15 -6 15 C-6.33 15.66 -6.66 16.32 -7 17 C-7.99 15.35 -8.98 13.7 -10 12 C-9.67 13.65 -9.34 15.3 -9 17 C-9.66 17 -10.32 17 -11 17 C-11.66 14.36 -12.32 11.72 -13 9 C-12.39671875 8.76925781 -11.7934375 8.53851563 -11.171875 8.30078125 C-5.86374759 6.17586793 -5.86374759 6.17586793 -1.8125 2.25 C-1.214375 1.5075 -0.61625 0.765 0 0 Z " fill="#343132" transform="translate(129,147)"/>
<path d="M0 0 C6.93359375 -0.09765625 6.93359375 -0.09765625 9 0 C10 1 10 1 10.09765625 3.72265625 C10.08605469 4.82480469 10.07445312 5.92695312 10.0625 7.0625 C10.05347656 8.16722656 10.04445312 9.27195312 10.03515625 10.41015625 C10.02355469 11.26480469 10.01195312 12.11945313 10 13 C9.73445313 12.35546875 9.46890625 11.7109375 9.1953125 11.046875 C8.60363281 10.03367187 8.60363281 10.03367187 8 9 C4.94091587 8.18415432 4.94091587 8.18415432 2 8 C2 9.98 2 11.96 2 14 C1.34 14 0.68 14 0 14 C0 9.38 0 4.76 0 0 Z " fill="#332F31" transform="translate(118,99)"/>
<path d="M0 0 C3.50997281 1.16999094 3.82681622 2.2935298 5.68359375 5.30078125 C8.18746802 8.53278513 11.65204637 10.70843951 15 13 C15.66 11.35 16.32 9.7 17 8 C18.32 8.33 19.64 8.66 21 9 C20.67 11.64 20.34 14.28 20 17 C14.1241188 17.60784978 11.03808946 14.65196343 6.5390625 11.23828125 C3.2734577 8.35952502 1.67677842 5.99232958 0 2 C0 1.34 0 0.68 0 0 Z " fill="#8C8A8B" transform="translate(87,147)"/>
<path d="M0 0 C0.9075 0.00257812 1.815 0.00515625 2.75 0.0078125 C4.11125 0.00394531 4.11125 0.00394531 5.5 0 C7.75 0.1328125 7.75 0.1328125 8.75 1.1328125 C11.9991696 1.37138789 15.24096203 1.52749891 18.49609375 1.65039062 C23.20846154 1.88207476 27.25817121 2.67679975 31.75 4.1328125 C25.94497453 5.95114745 19.68482914 5.08082337 13.6875 4.8828125 C12.39521484 4.85574219 11.10292969 4.82867187 9.77148438 4.80078125 C7.91813477 4.74083984 7.91813477 4.74083984 6.02734375 4.6796875 C4.32952759 4.63086426 4.32952759 4.63086426 2.59741211 4.58105469 C-0.4699335 4.09819037 -1.4102634 3.56741214 -3.25 1.1328125 C-2.25 0.1328125 -2.25 0.1328125 0 0 Z " fill="#2B2829" transform="translate(45.25,116.8671875)"/>
<path d="M0 0 C2.75 -0.3125 2.75 -0.3125 6 0 C8.0625 2.25 8.0625 2.25 10 5 C11.63356951 6.37368345 13.2925002 7.71937515 15 9 C14.34 10.32 13.68 11.64 13 13 C7.43774461 11.65157445 4.26557159 7.43310121 1 3 C0.67 2.01 0.34 1.02 0 0 Z " fill="#353132" transform="translate(89,147)"/>
<path d="M0 0 C1.16660156 0.00322266 2.33320313 0.00644531 3.53515625 0.00976562 C4.75847656 0.01814453 5.98179687 0.02652344 7.2421875 0.03515625 C8.47324219 0.03966797 9.70429688 0.04417969 10.97265625 0.04882812 C14.02088142 0.06064295 17.06901064 0.07711597 20.1171875 0.09765625 C17.13639716 3.07844659 13.746542 2.48457647 9.7421875 2.59765625 C3.08641354 2.55695257 3.08641354 2.55695257 -2.8828125 5.09765625 C-4.15085816 7.13125105 -4.15085816 7.13125105 -4.8828125 9.09765625 C-5.2128125 8.10765625 -5.5428125 7.11765625 -5.8828125 6.09765625 C-6.5428125 6.09765625 -7.2028125 6.09765625 -7.8828125 6.09765625 C-7.8828125 4.44765625 -7.8828125 2.79765625 -7.8828125 1.09765625 C-5.16879956 -0.25935022 -3.03434934 -0.01472985 0 0 Z " fill="#282426" transform="translate(131.8828125,117.90234375)"/>
<path d="M0 0 C10.23 0 20.46 0 31 0 C31 0.66 31 1.32 31 2 C27.87322796 3.56338602 24.55548595 3.19046274 21.125 3.1875 C19.98720093 3.1884668 19.98720093 3.1884668 18.82641602 3.18945312 C12.41429294 3.12993759 6.27288491 2.35368615 0 1 C0 0.67 0 0.34 0 0 Z " fill="#2A2628" transform="translate(148,123)"/>
<path d="M0 0 C0 1.98 0 3.96 0 6 C-0.66 5.67 -1.32 5.34 -2 5 C-2 3.68 -2 2.36 -2 1 C-6.35332736 0.15976812 -10.44442519 -0.10770995 -14.875 -0.0625 C-16.02742188 -0.05347656 -17.17984375 -0.04445313 -18.3671875 -0.03515625 C-19.23601562 -0.02355469 -20.10484375 -0.01195313 -21 0 C-21 1.65 -21 3.3 -21 5 C-21.99 5.495 -21.99 5.495 -23 6 C-23 4.35 -23 2.7 -23 1 C-23.66 0.67 -24.32 0.34 -25 0 C-16.69789379 -4.42778998 -8.30210621 -4.42778998 0 0 Z " fill="#C4C3C3" transform="translate(124,118)"/>
<path d="M0 0 C10.23 0 20.46 0 31 0 C31 0.33 31 0.66 31 1 C5.36989033 4.68494516 5.36989033 4.68494516 0 2 C0 1.34 0 0.68 0 0 Z " fill="#272325" transform="translate(46,123)"/>
<path d="M0 0 C0.66 0.33 1.32 0.66 2 1 C0.625 2.5 0.625 2.5 -1 4 C-1.66 4 -2.32 4 -3 4 C-3.33 4.66 -3.66 5.32 -4 6 C-4.66666667 7.33333333 -5.33333333 8.66666667 -6 10 C-4.35 9.67 -2.7 9.34 -1 9 C-2.98 9.99 -2.98 9.99 -5 11 C-5 13.64 -5 16.28 -5 19 C-6.65 19.33 -8.3 19.66 -10 20 C-9.67 19.13375 -9.34 18.2675 -9 17.375 C-7.50157733 12.3178235 -7.80201494 8.09143651 -9 3 C-6 1 -6 1 -2 1 C-1.34 0.67 -0.68 0.34 0 0 Z " fill="#FAF5F5" transform="translate(137,128)"/>
<path d="M0 0 C4.75 0.75 4.75 0.75 7 3 C7 4.65 7 6.3 7 8 C2.71 8 -1.58 8 -6 8 C-5.34 7.67 -4.68 7.34 -4 7 C-3.34786708 4.97536745 -3.34786708 4.97536745 -3 3 C-2.67 3.99 -2.34 4.98 -2 6 C-1.34 4.02 -0.68 2.04 0 0 Z " fill="#FEFAFA" transform="translate(116,140)"/>
<path d="M0 0 C0.66 2.31 1.32 4.62 2 7 C4.64 7.33 7.28 7.66 10 8 C10 8.33 10 8.66 10 9 C6.04 9 2.08 9 -2 9 C-1.67 8.34 -1.34 7.68 -1 7 C-3.31 7.33 -5.62 7.66 -8 8 C-5.73913043 0 -5.73913043 0 0 0 Z " fill="#FCE8E8" transform="translate(109,140)"/>
<path d="M0 0 C8.69262672 0.79403802 17.34291147 1.89369712 26 3 C25.67 3.99 25.34 4.98 25 6 C16.00974338 6.80270148 8.38661065 3.88128955 0 1 C0 0.67 0 0.34 0 0 Z " fill="#2A2728" transform="translate(145,129)"/>
<path d="M0 0 C3.16691607 0.14070156 6.33346378 0.28851269 9.5 0.4375 C10.386875 0.47681641 11.27375 0.51613281 12.1875 0.55664062 C17.50615127 0.81084087 22.7256256 1.26676337 28 2 C28 2.66 28 3.32 28 4 C18.16256984 4.33706931 9.49613298 4.02149686 0 1 C0 0.67 0 0.34 0 0 Z " fill="#312D2E" transform="translate(147,126)"/>
<path d="M0 0 C-7.69839064 5.13226043 -15.98967896 5.41800458 -25 5 C-25.33 4.34 -25.66 3.68 -26 3 C-22.98017116 2.49317558 -19.95937183 1.99436665 -16.9375 1.5 C-16.08994141 1.35691406 -15.24238281 1.21382812 -14.36914062 1.06640625 C-9.50727611 0.27799579 -4.92471814 -0.16037074 0 0 Z " fill="#2B2728" transform="translate(80,129)"/>
<path d="M0 0 C-8.70975969 4.6898706 -18.35664187 4.25011592 -28 4 C-28 3.34 -28 2.68 -28 2 C-24.27114739 1.66309057 -20.5418724 1.33110205 -16.8125 1 C-15.75740234 0.90460938 -14.70230469 0.80921875 -13.61523438 0.7109375 C-12.59365234 0.62070313 -11.57207031 0.53046875 -10.51953125 0.4375 C-9.58214111 0.35371094 -8.64475098 0.26992187 -7.67895508 0.18359375 C-5.10912909 0.00747882 -2.57485166 -0.0326706 0 0 Z " fill="#282426" transform="translate(78,126)"/>
<path d="M0 0 C0 0.66 0 1.32 0 2 C-2.36829035 3.03951676 -4.74253894 4.05642328 -7.125 5.0625 C-8.12273437 5.50432617 -8.12273437 5.50432617 -9.140625 5.95507812 C-13.49599418 7.76981528 -16.28581824 8.28501839 -21 7 C-21 6.34 -21 5.68 -21 5 C-17.87605609 4.16267257 -14.75068026 3.33082018 -11.625 2.5 C-10.73554687 2.26152344 -9.84609375 2.02304688 -8.9296875 1.77734375 C-8.07890625 1.55175781 -7.228125 1.32617188 -6.3515625 1.09375 C-5.56604004 0.88427734 -4.78051758 0.67480469 -3.97119141 0.45898438 C-2 0 -2 0 0 0 Z " fill="#312D2F" transform="translate(82,131)"/>
<path d="M0 0 C4.05819183 0.65503282 7.53971282 1.94559121 11.3125 3.5625 C12.38113281 4.01753906 13.44976562 4.47257813 14.55078125 4.94140625 C15.76314453 5.46541016 15.76314453 5.46541016 17 6 C16.67 6.66 16.34 7.32 16 8 C11.10160332 8.34884724 8.34104063 7.46792622 4.125 5 C3.15820312 4.443125 2.19140625 3.88625 1.1953125 3.3125 C0.47085938 2.879375 -0.25359375 2.44625 -1 2 C-0.67 1.34 -0.34 0.68 0 0 Z " fill="#353133" transform="translate(141,134)"/>
<path d="M0 0 C7.35012956 0.57648075 14.01424576 2.71046164 21 5 C17.82143414 7.11904391 16.82454527 7.25140026 13.18359375 6.625 C8.57519175 5.30595828 4.29320956 3.10390559 0 1 C0 0.67 0 0.34 0 0 Z " fill="#312E2F" transform="translate(143,132)"/>
<path d="M0 0 C2.05078125 0.03255208 4.1015625 0.06510417 6.15234375 0.09765625 C6.48234375 1.41765625 6.81234375 2.73765625 7.15234375 4.09765625 C6.49234375 3.43765625 5.83234375 2.77765625 5.15234375 2.09765625 C2.56880157 1.93078177 2.56880157 1.93078177 0.15234375 2.09765625 C-0.17765625 3.41765625 -0.50765625 4.73765625 -0.84765625 6.09765625 C0.85390625 6.06671875 0.85390625 6.06671875 2.58984375 6.03515625 C6.15234375 6.09765625 6.15234375 6.09765625 7.15234375 7.09765625 C7.19315158 9.09723989 7.19488731 11.09810879 7.15234375 13.09765625 C4.18234375 13.09765625 1.21234375 13.09765625 -1.84765625 13.09765625 C-2.17765625 11.77765625 -2.50765625 10.45765625 -2.84765625 9.09765625 C-2.18765625 9.09765625 -1.52765625 9.09765625 -0.84765625 9.09765625 C-0.84765625 10.08765625 -0.84765625 11.07765625 -0.84765625 12.09765625 C1.46234375 12.09765625 3.77234375 12.09765625 6.15234375 12.09765625 C5.82234375 10.77765625 5.49234375 9.45765625 5.15234375 8.09765625 C4.01796875 7.95328125 2.88359375 7.80890625 1.71484375 7.66015625 C-1.84765625 7.09765625 -1.84765625 7.09765625 -2.84765625 6.09765625 C-2.97265625 3.59765625 -2.97265625 3.59765625 -2.84765625 1.09765625 C-1.84765625 0.09765625 -1.84765625 0.09765625 0 0 Z " fill="#231F21" transform="translate(65.84765625,98.90234375)"/>
<path d="M0 0 C0.33 0.99 0.66 1.98 1 3 C-0.07421875 4.9375 -0.07421875 4.9375 -1.6875 7 C-2.20699219 7.680625 -2.72648438 8.36125 -3.26171875 9.0625 C-5.88556185 11.98705321 -7.75090922 13.91483472 -11.75 14.1875 C-12.4925 14.125625 -13.235 14.06375 -14 14 C-14.66 12.35 -15.32 10.7 -16 9 C-14.68 9.99 -13.36 10.98 -12 12 C-7.26686692 9.20314863 -5.00032991 6.71480414 -2 2 C-1.34 2 -0.68 2 0 2 C0 1.34 0 0.68 0 0 Z " fill="#A3A2A3" transform="translate(136,147)"/>
<path d="M0 0 C2.97 0.495 2.97 0.495 6 1 C6.14695312 1.66386719 6.29390625 2.32773438 6.4453125 3.01171875 C8.05347313 9.34269595 9.45863569 12.45352684 15 16 C17.7124618 17.3049484 17.7124618 17.3049484 20 18 C20 18.33 20 18.66 20 19 C17.08083462 19.34751969 14.86804524 19.53280018 12.30078125 17.95703125 C10.11660035 16.15362765 8.27793808 14.55587616 7 12 C6.01 11.34 5.02 10.68 4 10 C4.66 10 5.32 10 6 10 C5.67 7.69 5.34 5.38 5 3 C2.525 2.01 2.525 2.01 0 1 C0 0.67 0 0.34 0 0 Z " fill="#F2E8E8" transform="translate(88,136)"/>
<path d="M0 0 C1.98 0 3.96 0 6 0 C6.33 2.97 6.66 5.94 7 9 C6.34 8.67 5.68 8.34 5 8 C4.34 8.66 3.68 9.32 3 10 C1.68 9.67 0.36 9.34 -1 9 C-0.67 6.03 -0.34 3.06 0 0 Z " fill="#504D4E" transform="translate(109,156)"/>
<path d="M0 0 C10.55808656 -0.55353075 10.55808656 -0.55353075 15 3 C14.67 3.99 14.34 4.98 14 6 C13.608125 5.525625 13.21625 5.05125 12.8125 4.5625 C10.59191626 2.64820367 8.86624291 2.38733012 6 2 C5.67 2.99 5.34 3.98 5 5 C4.01 4.34 3.02 3.68 2 3 C1.67 3.66 1.34 4.32 1 5 C-0.32 4.67 -1.64 4.34 -3 4 C-3 3.01 -3 2.02 -3 1 C-2.01 1.33 -1.02 1.66 0 2 C0 1.34 0 0.68 0 0 Z " fill="#B1B0B0" transform="translate(82,120)"/>
<path d="M0 0 C-0.66 0.66 -1.32 1.32 -2 2 C-1.67 2.99 -1.34 3.98 -1 5 C-2.98 5 -4.96 5 -7 5 C-7 4.34 -7 3.68 -7 3 C-8.65 3 -10.3 3 -12 3 C-12 2.34 -12 1.68 -12 1 C-14.97 1 -17.94 1 -21 1 C-21 0.67 -21 0.34 -21 0 C-18.25034772 -0.19511725 -15.50057868 -0.38136433 -12.75 -0.5625 C-11.97269531 -0.61857422 -11.19539062 -0.67464844 -10.39453125 -0.73242188 C-9.64042969 -0.78076172 -8.88632813 -0.82910156 -8.109375 -0.87890625 C-7.41811523 -0.9260376 -6.72685547 -0.97316895 -6.01464844 -1.02172852 C-3.86382928 -0.99853136 -2.05915129 -0.5995764 0 0 Z " fill="#B0AFAF" transform="translate(154,120)"/>
<path d="M0 0 C12.21 0 24.42 0 37 0 C37 0.33 37 0.66 37 1 C35.35451172 1.09087891 35.35451172 1.09087891 33.67578125 1.18359375 C32.22134346 1.26804498 30.76691695 1.35269066 29.3125 1.4375 C28.59126953 1.47681641 27.87003906 1.51613281 27.12695312 1.55664062 C24.04249909 1.73973607 21.13796586 1.97151312 18.10546875 2.59765625 C16 3 16 3 14 2 C11.62876754 1.76970044 9.25258057 1.58880058 6.875 1.4375 C5.59367187 1.35371094 4.31234375 1.26992187 2.9921875 1.18359375 C1.51105469 1.09271484 1.51105469 1.09271484 0 1 C0 0.67 0 0.34 0 0 Z " fill="#5F5D5E" transform="translate(59,117)"/>
<path d="M0 0 C0 0.66 0 1.32 0 2 C-3.90648297 5.51264136 -7.73131838 7.3375492 -13 7.3125 C-14.33506492 7.2335688 -15.66980117 7.13856238 -17 7 C-14.55213773 4.55213773 -12.25682658 3.69919356 -9.0625 2.375 C-7.47115234 1.70597656 -7.47115234 1.70597656 -5.84765625 1.0234375 C-3 0 -3 0 0 0 Z " fill="#302D2E" transform="translate(84,134)"/>
<path d="M0 0 C0.86625 0.556875 0.86625 0.556875 1.75 1.125 C1.75 2.115 1.75 3.105 1.75 4.125 C-1.22 4.785 -4.19 5.445 -7.25 6.125 C-7 3.75 -7 3.75 -6.25 1.125 C-3.80299775 -0.81572592 -2.94395499 -1.14487138 0 0 Z " fill="#6D6B6C" transform="translate(138.25,131.875)"/>
<path d="M0 0 C0 0.66 0 1.32 0 2 C-0.61875 2.2475 -1.2375 2.495 -1.875 2.75 C-4.35068687 4.20628639 -4.95125002 5.37812506 -6 8 C-6.33 7.01 -6.66 6.02 -7 5 C-7.66 5 -8.32 5 -9 5 C-9 3.35 -9 1.7 -9 0 C-5.93109813 -1.53445094 -3.29905734 -0.54984289 0 0 Z " fill="#343132" transform="translate(133,119)"/>
<path d="M0 0 C1.98 0 3.96 0 6 0 C6.38218767 1.65614657 6.71395102 3.32457024 7 5 C6 6 6 6 2.9375 6.0625 C1.4834375 6.0315625 1.4834375 6.0315625 0 6 C0 4.02 0 2.04 0 0 Z " fill="#E8E8E8" transform="translate(120,100)"/>
<path d="M0 0 C0.33 0 0.66 0 1 0 C2.03590199 5.05002222 2.10251672 9.87416389 2 15 C-0.64 15 -3.28 15 -6 15 C-6 14.34 -6 13.68 -6 13 C-4.02 13 -2.04 13 0 13 C0 8.71 0 4.42 0 0 Z " fill="#535051" transform="translate(129,80)"/>
<path d="M0 0 C6.19887485 -0.37952295 10.4477112 0.1647887 16 3 C16 4.98 16 6.96 16 9 C15.34 8.67 14.68 8.34 14 8 C14 6.68 14 5.36 14 4 C11.03 3.505 11.03 3.505 8 3 C8 2.34 8 1.68 8 1 C5.36 1 2.72 1 0 1 C0 0.67 0 0.34 0 0 Z " fill="#8F8E8E" transform="translate(108,115)"/>
<path d="M0 0 C4.04052022 1.34684007 4.77159201 3.44847477 7 7 C7.98866506 8.34175973 8.9838154 9.67896002 10 11 C7.8125 11 7.8125 11 5 10 C2.65770658 7.11961214 0 3.81180628 0 0 Z " fill="#B0AFAF" transform="translate(87,147)"/>
<path d="M0 0 C3.3 0 6.6 0 10 0 C10.33 0.99 10.66 1.98 11 3 C7.37 3 3.74 3 0 3 C0 2.01 0 1.02 0 0 Z " fill="#3C393A" transform="translate(43,117)"/>
<path d="M0 0 C-0.3125 2.375 -0.3125 2.375 -1 5 C-1.99 5.66 -2.98 6.32 -4 7 C-4.433125 5.5459375 -4.433125 5.5459375 -4.875 4.0625 C-5.64214682 0.89335797 -5.64214682 0.89335797 -8 0 C-4.71303767 -0.79953138 -3.28976808 -1.09658936 0 0 Z " fill="#312E2F" transform="translate(101,119)"/>
<path d="M0 0 C0.99 0.33 1.98 0.66 3 1 C3.34342449 2.33076989 3.67619874 3.66431979 4 5 C4.99 5.66 5.98 6.32 7 7 C6.34 7 5.68 7 5 7 C4.67 7.66 4.34 8.32 4 9 C3.01 7.35 2.02 5.7 1 4 C1.33 5.65 1.66 7.3 2 9 C1.34 9 0.68 9 0 9 C-0.66 6.36 -1.32 3.72 -2 1 C-1.34 0.67 -0.68 0.34 0 0 Z " fill="#4D4B4B" transform="translate(118,155)"/>
<path d="M0 0 C-1.98 2.97 -1.98 2.97 -4 6 C-5.32 5.67 -6.64 5.34 -8 5 C-7.625 3.0625 -7.625 3.0625 -7 1 C-4.53721199 -0.231394 -2.7204945 -0.07159196 0 0 Z " fill="#2F2C2D" transform="translate(137,122)"/>
<path d="M0 0 C0.33 0.99 0.66 1.98 1 3 C-2.32307692 6.93846154 -2.32307692 6.93846154 -5.75 7.25 C-6.4925 7.1675 -7.235 7.085 -8 7 C-8 6.34 -8 5.68 -8 5 C-6.25 3.7109375 -6.25 3.7109375 -4 2.375 C-3.2575 1.92898437 -2.515 1.48296875 -1.75 1.0234375 C-1.1725 0.68570313 -0.595 0.34796875 0 0 Z " fill="#312D2F" transform="translate(83,137)"/>
<path d="M0 0 C0.66 0 1.32 0 2 0 C2.33 0.66 2.66 1.32 3 2 C5.34907875 2.68931344 5.34907875 2.68931344 8.0625 3.125 C8.98160156 3.29257813 9.90070313 3.46015625 10.84765625 3.6328125 C11.91306641 3.81457031 11.91306641 3.81457031 13 4 C12.01 4.99 11.02 5.98 10 7 C9.01 6.67 8.02 6.34 7 6 C6.34 6.66 5.68 7.32 5 8 C2.74754119 5.31158141 1.11786042 3.35358125 0 0 Z " fill="#818080" transform="translate(124,124)"/>
<path d="M0 0 C2.31 0.33 4.62 0.66 7 1 C7 2.65 7 4.3 7 6 C6.01 6 5.02 6 4 6 C1.8125 3 1.8125 3 0 0 Z " fill="#2F2C2D" transform="translate(88,122)"/>
<path d="M0 0 C8.57142857 2.85714286 8.57142857 2.85714286 12 7 C11.34 7.66 10.68 8.32 10 9 C9.13375 8.21625 8.2675 7.4325 7.375 6.625 C4.44943553 4.16613272 1.72463238 2.97549896 -2 2 C-1.34 1.34 -0.68 0.68 0 0 Z " fill="#EED6D6" transform="translate(117,123)"/>
<path d="M0 0 C0.99 0.33 1.98 0.66 3 1 C-4.42813456 8 -4.42813456 8 -9 8 C-9.66 7.34 -10.32 6.68 -11 6 C-10.45730469 5.81824219 -9.91460937 5.63648438 -9.35546875 5.44921875 C-8.28232422 5.07216797 -8.28232422 5.07216797 -7.1875 4.6875 C-6.47980469 4.44386719 -5.77210937 4.20023438 -5.04296875 3.94921875 C-2.85527627 2.93275742 -1.59103282 1.79179406 0 0 Z " fill="#EDD7D7" transform="translate(126,148)"/>
<path d="M0 0 C-3.13498292 1.85776765 -5.37471432 2.20140476 -9 2 C-9.33 2.66 -9.66 3.32 -10 4 C-10.33 3.01 -10.66 2.02 -11 1 C-13.01508358 0.26676204 -13.01508358 0.26676204 -15 0 C-13.06325815 -0.19517554 -11.12555991 -0.38087873 -9.1875 -0.5625 C-8.10855469 -0.66691406 -7.02960937 -0.77132812 -5.91796875 -0.87890625 C-3 -1 -3 -1 0 0 Z " fill="#B5B4B4" transform="translate(70,134)"/>
<path d="M0 0 C3.96 1.98 3.96 1.98 8 4 C8 4.66 8 5.32 8 6 C5.69 5.67 3.38 5.34 1 5 C0.67 3.35 0.34 1.7 0 0 Z " fill="#332F31" transform="translate(142,138)"/>
<path d="M0 0 C0.66 0 1.32 0 2 0 C1.67 2.64 1.34 5.28 1 8 C-0.65 8 -2.3 8 -4 8 C-3.34 7.67 -2.68 7.34 -2 7 C-1.61781233 5.34385343 -1.28604898 3.67542976 -1 2 C-0.67 1.34 -0.34 0.68 0 0 Z " fill="#7E7C7C" transform="translate(106,156)"/>
<path d="M0 0 C0.598125 0.495 1.19625 0.99 1.8125 1.5 C3.97029994 3.28276418 3.97029994 3.28276418 7 3 C7.33 3.99 7.66 4.98 8 6 C5.36 6 2.72 6 0 6 C0 4.02 0 2.04 0 0 Z " fill="#CCCBCC" transform="translate(83,121)"/>
<path d="M0 0 C3.3 0 6.6 0 10 0 C10 0.99 10 1.98 10 3 C6.7 2.67 3.4 2.34 0 2 C0 1.34 0 0.68 0 0 Z " fill="#4C494A" transform="translate(172,117)"/>
<path d="M0 0 C2.05078125 0.03255208 4.1015625 0.06510417 6.15234375 0.09765625 C6.48234375 1.41765625 6.81234375 2.73765625 7.15234375 4.09765625 C6.49234375 3.43765625 5.83234375 2.77765625 5.15234375 2.09765625 C2.56880157 1.93078177 2.56880157 1.93078177 0.15234375 2.09765625 C-0.17765625 3.74765625 -0.50765625 5.39765625 -0.84765625 7.09765625 C-1.50765625 6.76765625 -2.16765625 6.43765625 -2.84765625 6.09765625 C-2.89037725 4.4315372 -2.88829457 2.7638274 -2.84765625 1.09765625 C-1.84765625 0.09765625 -1.84765625 0.09765625 0 0 Z " fill="#3C383A" transform="translate(65.84765625,98.90234375)"/>
<path d="M0 0 C1.32 0.99 2.64 1.98 4 3 C5.32 2.01 6.64 1.02 8 0 C8.66 0.33 9.32 0.66 10 1 C8.8125 3 8.8125 3 7 5 C4.3125 5.25 4.3125 5.25 2 5 C1.34 3.35 0.68 1.7 0 0 Z " fill="#C6C5C5" transform="translate(120,156)"/>
<path d="M0 0 C3.63 0.66 7.26 1.32 11 2 C10.67 2.99 10.34 3.98 10 5 C6.37 4.01 2.74 3.02 -1 2 C-0.67 1.34 -0.34 0.68 0 0 Z " fill="#CAC9CA" transform="translate(155,133)"/>
<path d="M0 0 C0.66 0.33 1.32 0.66 2 1 C0.625 2.5 0.625 2.5 -1 4 C-1.66 4 -2.32 4 -3 4 C-3.33 4.66 -3.66 5.32 -4 6 C-4 5.34 -4 4.68 -4 4 C-5.32 4.33 -6.64 4.66 -8 5 C-7.34 3.68 -6.68 2.36 -6 1 C-4.68 1 -3.36 1 -2 1 C-1.34 0.67 -0.68 0.34 0 0 Z " fill="#D0D0D0" transform="translate(137,128)"/>
<path d="M0 0 C-0.33 0.66 -0.66 1.32 -1 2 C-3.97 2 -6.94 2 -10 2 C-6.80505194 -1.19494806 -4.22040044 -1.35655728 0 0 Z " fill="#444142" transform="translate(171,133)"/>
<path d="M0 0 C1.4606285 2.64738916 2 3.89448334 2 7 C-0.375 7.625 -0.375 7.625 -3 8 C-3.66 7.34 -4.32 6.68 -5 6 C-3.68 5.67 -2.36 5.34 -1 5 C-0.67 3.35 -0.34 1.7 0 0 Z " fill="#9B9A9A" transform="translate(92,139)"/>
<path d="M0 0 C2.6875 0.875 2.6875 0.875 5 2 C3.625 3.5 3.625 3.5 2 5 C1.34 5 0.68 5 0 5 C-0.33 4.34 -0.66 3.68 -1 3 C-1.66 2.67 -2.32 2.34 -3 2 C-2.01 1.34 -1.02 0.68 0 0 Z " fill="#7D7B7C" transform="translate(84,135)"/>
<path d="M0 0 C1.32 0.66 2.64 1.32 4 2 C4 2.99 4 3.98 4 5 C2.35 5.33 0.7 5.66 -1 6 C-0.67 4.02 -0.34 2.04 0 0 Z " fill="#9D9C9C" transform="translate(136,131)"/>
<path d="M0 0 C2.475 0.99 2.475 0.99 5 2 C4.34 3.32 3.68 4.64 3 6 C1 5 1 5 0 3 C0 2.01 0 1.02 0 0 Z " fill="#5E5C5D" transform="translate(89,132)"/>
<path d="M0 0 C0.66 0.33 1.32 0.66 2 1 C2 1.99 2 2.98 2 4 C0.02 4.33 -1.96 4.66 -4 5 C-4.33 3.68 -4.66 2.36 -5 1 C-4.34 1 -3.68 1 -3 1 C-3 1.66 -3 2.32 -3 3 C-2.01 2.67 -1.02 2.34 0 2 C0 1.34 0 0.68 0 0 Z " fill="#939393" transform="translate(136,142)"/>
<path d="M0 0 C1.9375 0.25 1.9375 0.25 4 1 C4.66 1.99 5.32 2.98 6 4 C3.625 4.1875 3.625 4.1875 1 4 C0.34 3.01 -0.32 2.02 -1 1 C-0.67 0.67 -0.34 0.34 0 0 Z " fill="#353233" transform="translate(138,141)"/>
<path d="M0 0 C-0.33 0.66 -0.66 1.32 -1 2 C-2.98 2 -4.96 2 -7 2 C-7.33 1.34 -7.66 0.68 -8 0 C-5.13822943 -1.43088528 -3.06624227 -0.59991697 0 0 Z " fill="#413E3F" transform="translate(158,140)"/>
<path d="M0 0 C1.65 1.65 3.3 3.3 5 5 C3.68 5.33 2.36 5.66 1 6 C0.67 4.02 0.34 2.04 0 0 Z " fill="#332F30" transform="translate(132,139)"/>
<path d="M0 0 C0.66 0.99 1.32 1.98 2 3 C0.02 3.99 -1.96 4.98 -4 6 C-4.33 4.35 -4.66 2.7 -5 1 C-4.67 1.66 -4.34 2.32 -4 3 C-2.68 2.01 -1.36 1.02 0 0 Z " fill="#7B7A7A" transform="translate(100,123)"/>
</svg>
